<?xml version="1.0" encoding="UTF-8" standalone="no"?>
<!-- Created with Inkscape (http://www.inkscape.org/) -->

<svg
   xmlns:dc="http://purl.org/dc/elements/1.1/"
   xmlns:cc="http://creativecommons.org/ns#"
   xmlns:rdf="http://www.w3.org/1999/02/22-rdf-syntax-ns#"
   xmlns:svg="http://www.w3.org/2000/svg"
   xmlns="http://www.w3.org/2000/svg"
   version="1.0"
   width="710.14526"
   height="350.6763"
   id="svg2">
  <defs
     id="defs4">
    <clipPath
       id="clipPath4433">
      <rect
         width="694.01709"
         height="342.73505"
         x="1937.1854"
         y="-743.61798"
         id="rect4435"
         style="fill:none;stroke:#000000;stroke-opacity:1" />
    </clipPath>
    <clipPath
       id="clipPath4437">
      <rect
         width="694.01709"
         height="342.73505"
         x="1937.1854"
         y="-743.61798"
         id="rect4439"
         style="fill:none;stroke:#000000;stroke-opacity:1" />
    </clipPath>
    <clipPath
       id="clipPath4441">
      <rect
         width="694.01709"
         height="342.73505"
         x="1937.1854"
         y="-743.61798"
         id="rect4443"
         style="fill:none;stroke:#000000;stroke-opacity:1" />
    </clipPath>
    <clipPath
       id="clipPath4445">
      <rect
         width="694.01709"
         height="342.73505"
         x="1937.1854"
         y="-743.61798"
         id="rect4447"
         style="fill:none;stroke:#000000;stroke-opacity:1" />
    </clipPath>
    <clipPath
       id="clipPath4449">
      <rect
         width="694.01709"
         height="342.73505"
         x="1937.1854"
         y="-743.61798"
         id="rect4451"
         style="fill:none;stroke:#000000;stroke-opacity:1" />
    </clipPath>
    <clipPath
       id="clipPath4453">
      <rect
         width="694.01709"
         height="342.73505"
         x="1937.1854"
         y="-743.61798"
         id="rect4455"
         style="fill:none;stroke:#000000;stroke-opacity:1" />
    </clipPath>
    <clipPath
       id="clipPath4457">
      <rect
         width="694.01709"
         height="342.73505"
         x="1937.1854"
         y="-743.61798"
         id="rect4459"
         style="fill:none;stroke:#000000;stroke-opacity:1" />
    </clipPath>
    <clipPath
       id="clipPath4461">
      <rect
         width="694.01709"
         height="342.73505"
         x="1937.1854"
         y="-743.61798"
         id="rect4463"
         style="fill:none;stroke:#000000;stroke-opacity:1" />
    </clipPath>
    <clipPath
       id="clipPath4465">
      <rect
         width="694.01709"
         height="342.73505"
         x="1937.1854"
         y="-743.61798"
         id="rect4467"
         style="fill:none;stroke:#000000;stroke-opacity:1" />
    </clipPath>
    <clipPath
       id="clipPath4469">
      <rect
         width="694.01709"
         height="342.73505"
         x="1937.1854"
         y="-743.61798"
         id="rect4471"
         style="fill:none;stroke:#000000;stroke-opacity:1" />
    </clipPath>
    <clipPath
       id="clipPath4473">
      <rect
         width="694.01709"
         height="342.73505"
         x="1937.1854"
         y="-743.61798"
         id="rect4475"
         style="fill:none;stroke:#000000;stroke-opacity:1" />
    </clipPath>
    <clipPath
       id="clipPath4477">
      <rect
         width="694.01709"
         height="342.73505"
         x="1937.1854"
         y="-743.61798"
         id="rect4479"
         style="fill:none;stroke:#000000;stroke-opacity:1" />
    </clipPath>
    <clipPath
       id="clipPath4481">
      <rect
         width="694.01709"
         height="342.73505"
         x="1937.1854"
         y="-743.61798"
         id="rect4483"
         style="fill:none;stroke:#000000;stroke-opacity:1" />
    </clipPath>
    <clipPath
       id="clipPath4485">
      <rect
         width="694.01709"
         height="342.73505"
         x="1937.1854"
         y="-743.61798"
         id="rect4487"
         style="fill:none;stroke:#000000;stroke-opacity:1" />
    </clipPath>
    <clipPath
       id="clipPath4489">
      <rect
         width="694.01709"
         height="342.73505"
         x="1937.1854"
         y="-743.61798"
         id="rect4491"
         style="fill:none;stroke:#000000;stroke-opacity:1" />
    </clipPath>
    <clipPath
       id="clipPath4493">
      <rect
         width="694.01709"
         height="342.73505"
         x="1937.1854"
         y="-743.61798"
         id="rect4495"
         style="fill:none;stroke:#000000;stroke-opacity:1" />
    </clipPath>
    <clipPath
       id="clipPath4489-1">
      <rect
         width="694.01709"
         height="342.73505"
         x="1937.1854"
         y="-743.61798"
         id="rect4491-7"
         style="fill:none;stroke:#000000;stroke-opacity:1" />
    </clipPath>
  </defs>
  <metadata
     id="metadata7">
    <rdf:RDF>
      <cc:Work
         rdf:about="">
        <dc:format>image/svg+xml</dc:format>
        <dc:type
           rdf:resource="http://purl.org/dc/dcmitype/StillImage" />
        <dc:title></dc:title>
      </cc:Work>
    </rdf:RDF>
  </metadata>
  <g
     transform="translate(-1931.0572,746.71057)"
     id="layer1">
    <path
       d="m 2914.9509,-673.66915 c -3.01,0 -5.994,14.28531 -5.994,14.28531 0,0 -2.984,14.28531 -5.9939,14.28531 -3.0099,0 -6.0457,-14.28531 -6.0457,-14.28531 0,0 -3.0229,-14.28531 -6.0458,-14.28531 -3.0228,0 -6.0457,14.28531 -6.0457,14.28531 0,0 -3.0229,14.28531 -6.0457,14.28531 -3.0229,0 -6.0458,-14.28531 -6.0458,-14.28531 0,0 -3.0229,-14.28531 -6.0458,-14.28531 -3.0228,0 -6.0457,14.28531 -6.0457,14.28531 0,0 -3.0228,14.28531 -6.0457,14.28531 -3.0229,0 -6.0458,-14.28531 -6.0458,-14.28531 0,0 -3.0228,-14.28531 -6.0457,-14.28531 -3.0229,0 -6.0458,14.28531 -6.0458,14.28531 0,0 -3.0228,14.28531 -6.0457,14.28531 -3.0229,0 -6.0457,-14.28531 -6.0457,-14.28531 0,0 -3.0229,-14.28531 -6.0458,-14.28531 -3.0228,0 -6.0457,14.28531 -6.0457,14.28531 0,0 -3.0229,14.28531 -6.0458,14.28531 -3.0229,0 -6.0457,-14.28531 -6.0457,-14.28531 0,0 -3.0229,-14.28531 -6.0458,-14.28531 -3.0228,0 -6.0457,14.28531 -6.0457,14.28531 0,0 -3.0229,14.28531 -6.0458,14.28531 -3.0229,0 -6.0457,-14.28531 -6.0457,-14.28531 0,0 -3.0229,-14.28531 -6.0458,-14.28531 -3.0228,0 -6.0457,14.28531 -6.0457,14.28531 0,0 -3.0229,14.28531 -6.0457,14.28531 -3.0229,0 -6.0458,-14.28531 -6.0458,-14.28531 0,0 -3.0229,-14.28531 -6.0458,-14.28531 -3.0228,0 -6.0457,14.28531 -6.0457,14.28531 0,0 -3.0229,14.28531 -6.0457,14.28531 -3.0229,0 -6.0458,-14.28531 -6.0458,-14.28531 0,0 -3.0358,-14.28531 -6.0457,-14.28531 -3.0099,0 -5.9939,14.28531 -5.9939,14.28531 0,0 -2.984,14.28531 -5.994,14.28531 -3.0099,0 -6.0457,-14.28531 -6.0457,-14.28531 0,0 -3.0229,-14.28531 -6.0457,-14.28531 -3.0229,0 -6.0458,14.28531 -6.0458,14.28531 0,0 -3.0229,14.28531 -6.0458,14.28531 -3.0228,0 -6.0457,-14.28531 -6.0457,-14.28531 0,0 -3.0229,-14.28531 -6.0457,-14.28531 -3.0229,0 -6.0458,14.28531 -6.0458,14.28531 0,0 -3.0229,14.28531 -6.0457,14.28531 -3.0229,0 -6.0458,-14.28531 -6.0458,-14.28531 0,0 -3.0228,-14.28531 -6.0457,-14.28531 -3.0229,0 -6.0457,14.28531 -6.0457,14.28531 0,0 -3.0229,14.28531 -6.0458,14.28531 -3.0229,0 -6.0457,-14.28531 -6.0457,-14.28531 0,0 -3.0229,-14.28531 -6.0458,-14.28531 -3.0229,0 -6.0457,14.28531 -6.0457,14.28531 0,0 -3.0229,14.28531 -6.0458,14.28531 -3.0229,0 -6.0457,-14.28531 -6.0457,-14.28531 0,0 -3.0229,-14.28531 -6.0458,-14.28531 -3.0229,0 -6.0457,14.28531 -6.0457,14.28531 0,0 -3.0229,14.28531 -6.0458,14.28531 -3.0228,0 -6.0457,-14.28531 -6.0457,-14.28531 0,0 -3.0229,-14.28531 -6.0457,-14.28531 -3.0229,0 -6.0458,14.28531 -6.0458,14.28531 0,0 -3.0228,14.28531 -6.0457,14.28531 -3.0229,0 -6.0458,-14.28531 -6.0458,-14.28531 0,0 -3.0229,-42.85593 -6.0457,-42.85593 -3.0229,0 -6.0458,42.85593 -6.0458,42.85593 0,0 -3.0228,42.85592 -6.0457,42.85592 -3.0229,0 -6.0458,-42.85592 -6.0458,-42.85592 0,0 -3.0215,-42.85593 -6.0457,-42.85593 -3.0242,0 -6.051,42.85593 -6.051,42.85593 0,0 -3.0269,42.85592 -6.0511,42.85592 -3.0242,0 -6.0457,-42.85592 -6.0457,-42.85592 0,0 -3.0229,-42.85593 -6.0457,-42.85593 -3.0229,0 -6.0458,42.85593 -6.0458,42.85593 0,0 -3.0228,42.85592 -6.0457,42.85592 -3.0229,0 -6.0458,-42.85592 -6.0458,-42.85592 0,0 -3.0229,-42.85593 -6.0457,-42.85593 -3.0229,0 -6.0458,42.85593 -6.0458,42.85593 0,0 -3.0228,42.85592 -6.0457,42.85592 -3.0229,0 -6.0458,-42.85592 -6.0458,-42.85592 0,0 -3.0228,-42.85593 -6.0457,-42.85593 -3.0229,0 -6.0458,42.85593 -6.0458,42.85593 0,0 -3.0228,42.85592 -6.0457,42.85592 -3.0229,0 -6.0457,-42.85592 -6.0457,-42.85592 0,0 -3.0229,-42.85593 -6.0458,-42.85593 -3.0228,0 -6.0457,42.85593 -6.0457,42.85593 0,0 -3.0229,42.85592 -6.0458,42.85592 -3.0228,0 -6.0457,-42.85592 -6.0457,-42.85592 0,0 -3.0229,-42.85593 -6.0458,-42.85593 -3.0228,0 -6.0457,42.85593 -6.0457,42.85593 0,0 -3.0229,42.85592 -6.0458,42.85592 -3.0229,0 -6.0457,-42.85592 -6.0457,-42.85592 0,0 -3.0229,-42.85593 -6.0458,-42.85593 -3.0228,0 -6.0457,42.85593 -6.0457,42.85593 0,0 -3.0229,42.85592 -6.0457,42.85592 -3.0229,0 -6.0458,-42.85592 -6.0458,-42.85592 0,0 -3.0229,-42.85593 -6.0457,-42.85593 -3.0229,0 -6.0458,42.85593 -6.0458,42.85593 0,0 -3.0229,42.85592 -6.0457,42.85592 -3.0229,0 -6.0458,-42.85592 -6.0458,-42.85592 0,0 -3.0358,-42.85593 -6.0457,-42.85593 -3.0099,0 -5.9939,42.85593 -5.9939,42.85593 0,0 -2.984,42.85592 -5.9939,42.85592 -3.01,0 -6.0458,-42.85592 -6.0458,-42.85592 0,0 -3.0229,-42.85593 -6.0457,-42.85593 -3.0229,0 -6.0458,42.85593 -6.0458,42.85593 0,0 -3.0229,42.85592 -6.0457,42.85592 -3.0229,0 -6.0458,-42.85592 -6.0458,-42.85592 0,0 -3.0228,-42.85593 -6.0457,-42.85593 -3.0229,0 -6.0458,42.85593 -6.0458,42.85593 0,0 -3.0229,42.85592 -6.0457,42.85592 -3.0229,0 -6.0458,-42.85592 -6.0458,-42.85592 0,0 -3.0228,-42.85593 -6.0457,-42.85593 -3.0229,0 -6.0457,42.85593 -6.0457,42.85593 0,0 -3.0229,42.85592 -6.0458,42.85592 -3.0228,0 -6.0457,-42.85592 -6.0457,-42.85592 0,0 -3.0229,-42.85593 -6.0458,-42.85593 -3.0228,0 -6.0457,42.85593 -6.0457,42.85593 0,0 -3.0229,42.85592 -6.0458,42.85592 -3.0228,0 -6.0457,-42.85592 -6.0457,-42.85592 0,0 -3.0229,-42.85593 -6.0457,-42.85593 -3.0229,0 -6.0458,42.85593 -6.0458,42.85593 0,0 -3.0229,42.85592 -6.0458,42.85592 -3.0228,0 -6.0457,-42.85592 -6.0457,-42.85592 0,0 -3.0229,-42.85593 -6.0457,-42.85593 -3.0229,0 -6.0458,42.85593 -6.0458,42.85593 0,0 -3.0228,42.85592 -6.0457,42.85592 -3.0229,0 -6.0458,-42.85592 -6.0458,-42.85592 0,0 -3.0228,-42.85593 -6.0457,-42.85593 -3.0229,0 -6.0458,42.85593 -6.0458,42.85593 0,0 -3.0229,42.85592 -6.0457,42.85592 -3.0229,0 -6.0458,-42.85592 -6.0458,-42.85592 0,0 -3.0358,-42.85593 -6.0457,-42.85593 -3.0099,0 -5.9939,42.85593 -5.9939,42.85593 0,0 -2.984,42.85592 -5.9939,42.85592 -3.0099,0 -6.0458,-42.85592 -6.0458,-42.85592 0,0 -3.0229,-42.85593 -6.0457,-42.85593 -3.0229,0 -6.0458,42.85593 -6.0458,42.85593 0,0 -3.0228,42.85592 -6.0457,42.85592 -3.0229,0 -6.0457,-42.85592 -6.0457,-42.85592 0,0 -3.0229,-42.85593 -6.0458,-42.85593 -3.0229,0 -6.0458,42.85593 -6.0458,42.85593 0,0 -3.0228,42.85592 -6.0457,42.85592 -3.0229,0 -6.0457,-42.85592 -6.0457,-42.85592 0,0 -3.0229,-42.85593 -6.0458,-42.85593 -3.0228,0 -6.0457,42.85593 -6.0457,42.85593 0,0 -3.0229,42.85592 -6.0458,42.85592 -3.0228,0 -6.0457,-42.85592 -6.0457,-42.85592 0,0 -3.0229,-42.85593 -6.0458,-42.85593 -3.0228,0 -6.0457,42.85593 -6.0457,42.85593 0,0 -3.0229,42.85592 -6.0457,42.85592 -3.0229,0 -6.0458,-42.85592 -6.0458,-42.85592 0,0 -3.0228,-42.85593 -6.0457,-42.85593 -3.0229,0 -6.0458,42.85593 -6.0458,42.85593 0,0 -3.0228,14.28531 -6.0457,14.28531 -3.0229,0 -6.0458,-14.28531 -6.0458,-14.28531 0,0 -3.0228,-14.28531 -6.0457,-14.28531 -3.0229,0 -6.0458,14.28531 -6.0458,14.28531 0,0 -3.0228,14.28531 -6.0457,14.28531 -3.0229,0 -6.0457,-14.28531 -6.0457,-14.28531 0,0 -3.0229,-14.28531 -6.0458,-14.28531 -3.0229,0 -6.0457,14.28531 -6.0457,14.28531 0,0 -3.0229,14.28531 -6.0458,14.28531 -3.0229,0 -6.0457,-14.28531 -6.0457,-14.28531 0,0 -3.0359,-14.28531 -6.0458,-14.28531 -3.0099,0 -5.9939,14.28531 -5.9939,14.28531"
       clip-path="url(#clipPath4493)"
       id="path8145"
       style="color:#000000;fill:none;stroke:#000000;stroke-width:1.42853081;stroke-linecap:butt;stroke-linejoin:miter;stroke-miterlimit:4;stroke-opacity:1;stroke-dashoffset:0;marker:none;visibility:visible;display:inline;overflow:visible;enable-background:accumulate" />
    <path
       d="m 2916.3858,-680.36056 -974.2096,0 m 974.2096,41.95342 -974.2096,0"
       clip-path="url(#clipPath4477)"
       id="path8122"
       style="color:#000000;fill:none;stroke:#0000fd;stroke-width:1.42853081;stroke-linecap:butt;stroke-linejoin:miter;stroke-miterlimit:4;stroke-opacity:1;stroke-dasharray:4.28559232, 1.42853077;stroke-dashoffset:0;marker:none;visibility:visible;display:inline;overflow:visible;enable-background:accumulate" />
    <text
       x="1945.4113"
       y="-719.73785"
       clip-path="url(#clipPath4473)"
       id="text8153"
       xml:space="preserve"
       style="font-size:20px;font-style:normal;font-variant:normal;font-weight:normal;font-stretch:normal;text-align:start;line-height:100%;writing-mode:lr-tb;text-anchor:start;fill:#000000;fill-opacity:1;stroke:none;font-family:Tahoma"><tspan
         x="1945.4113"
         y="-719.73785"
         id="tspan8155">Original  Signal</tspan></text>
    <rect
       width="551.00336"
       height="49.331104"
       x="2009.8164"
       y="-567.8078"
       transform="translate(0,112.89489)"
       clip-path="url(#clipPath4489)"
       id="rect9138"
       style="color:#000000;fill:#fc8800;fill-opacity:0.67251461;fill-rule:nonzero;stroke:none;stroke-width:1;marker:none;visibility:visible;display:inline;overflow:visible;enable-background:accumulate" />
    <path
       d="m 2914.6814,-557.42759 c -3.0099,0 -5.9998,14.2853 -5.9998,14.2853 -10e-5,0 -2.981,14.28531 -5.991,14.28531 -3.0098,0 -6.0444,-14.28531 -6.0444,-14.28531 0,0 -3.0216,-14.2853 -6.0445,-14.2853 -3.0229,0 -6.0445,14.2853 -6.0445,14.2853 0,0 -3.0216,14.28531 -6.0444,14.28531 -3.0229,0 -6.0534,-14.28531 -6.0534,-14.28531 0,0 -3.0216,-14.2853 -6.0445,-14.2853 -3.0229,0 -6.0445,14.2853 -6.0445,14.2853 0,0 -3.0216,14.28531 -6.0444,14.28531 -3.0229,0 -6.0445,-14.28531 -6.0445,-14.28531 0,0 -3.0216,-14.2853 -6.0445,-14.2853 -3.0229,0 -6.0445,14.2853 -6.0445,14.2853 10e-5,0 -3.0305,14.28531 -6.0534,14.28531 -3.0228,0 -6.0444,-14.28531 -6.0444,-14.28531 -1e-4,0 -3.0217,-14.2853 -6.0445,-14.2853 -3.0229,0 -6.0445,14.2853 -6.0445,14.2853 10e-5,0 -3.0216,14.28531 -6.0445,14.28531 -3.0228,0 -6.0444,-14.28531 -6.0444,-14.28531 0,0 -3.0216,-14.2853 -6.0445,-14.2853 -3.0229,0 -6.0534,14.2853 -6.0534,14.2853 0,0 -3.0216,14.28531 -6.0444,14.28531 -3.023,0 -6.0445,-14.28531 -6.0445,-14.28531 -1e-4,0 -3.0216,-14.2853 -6.0445,-14.2853 -3.0228,0 -6.0445,14.2853 -6.0445,14.2853 10e-5,0 -3.0216,14.28531 -6.0444,14.28531 -3.0229,0 -6.0445,-14.28531 -6.0445,-14.28531 0,0 -3.0306,-14.2853 -6.0534,-14.2853 -3.0229,0 -6.0445,14.2853 -6.0445,14.2853 0,0 -3.0216,14.28531 -6.0445,14.28531 -3.0228,0 -6.0444,-14.28531 -6.0444,-14.28531 0,0 -3.0346,-14.2853 -6.0445,-14.2853 -3.0099,0 -5.9998,14.2853 -5.9998,14.2853 0,0 -2.981,14.28531 -5.9909,14.28531 -3.01,0 -6.0445,-14.28531 -6.0445,-14.28531 0,0 -3.0216,-14.2853 -6.0445,-14.2853 -3.0228,0 -6.0444,14.2853 -6.0444,14.2853 -10e-5,0 -3.0216,14.28531 -6.0445,14.28531 -3.0229,0 -6.0534,-14.28531 -6.0534,-14.28531 0,0 -3.0216,-14.2853 -6.0445,-14.2853 -3.0229,0 -6.0444,14.2853 -6.0444,14.2853 -1e-4,0 -3.0217,14.28531 -6.0445,14.28531 -3.0229,0 -6.0445,-14.28531 -6.0445,-14.28531 0,0 -3.0216,-14.2853 -6.0445,-14.2853 -3.0228,0 -6.0444,14.2853 -6.0444,14.2853 -10e-5,0 -3.0306,14.28531 -6.0534,14.28531 -3.0229,0 -6.0445,-14.28531 -6.0445,-14.28531 0,0 -3.0216,-14.2853 -6.0445,-14.2853 -3.0229,0 -6.0445,14.2853 -6.0445,14.2853 0,0 -3.0215,14.28531 -6.0444,14.28531 -3.0229,0 -6.0445,-14.28531 -6.0445,-14.28531 0,0 -3.0216,-14.2853 -6.0445,-14.2853 -3.0229,0 -6.0533,14.2853 -6.0533,14.2853 -1e-4,0 -3.0217,14.28531 -6.0445,14.28531 -3.0229,0 -6.0445,-14.28531 -6.0445,-14.28531 0,0 -3.0216,-14.2853 -6.0445,-14.2853 -3.0228,0 -6.0444,14.2853 -6.0444,14.2853 -10e-5,0 -3.0216,14.28531 -6.0445,14.28531 -3.0229,0 -6.0445,-14.28531 -6.0445,-14.28531 0,0 -0.6764,-9.55218 -1.7053,-19.63337 l -8.6872,0 c -1.2845,13.07708 -2.1445,26.1879 -3.4107,39.26674 l -8.6783,0 c -1.2844,-13.07707 -2.1446,-26.18787 -3.4106,-39.26674 l -8.6873,0 c -1.2854,13.07701 -2.1436,26.18796 -3.4106,39.26674 l -8.6872,0 c -1.2844,-13.07707 -2.1445,-26.18789 -3.4106,-39.26674 l -8.6784,0 c -1.2844,13.07708 -2.1445,26.18789 -3.4106,39.26674 l -8.6783,0 c -1.2845,-13.07707 -2.1445,-26.18788 -3.4106,-39.26674 l -8.6873,0 c -1.2844,13.07708 -2.1444,26.1879 -3.4106,39.26674 l -8.6783,0 c -1.2845,-13.07707 -2.1445,-26.18789 -3.4106,-39.26674 l -8.6784,0 c -1.2844,13.07708 -2.1445,26.1879 -3.4106,39.26674 l -8.6783,0 c -1.2784,-13.07782 -2.1513,-26.18782 -3.4195,-39.26674 l -8.6784,0 c -1.2844,13.07708 -2.1444,26.18789 -3.4106,39.26674 l -8.6783,0 c -1.2845,-13.07707 -2.1445,-26.18789 -3.4106,-39.26674 l -8.6784,0 c -1.2844,13.07708 -2.1445,26.18789 -3.4106,39.26674 l -8.6872,0 c -1.2845,-13.07707 -2.1445,-26.18789 -3.4107,-39.26674 l -8.6783,0 c -1.2844,13.07708 -2.1445,26.1879 -3.4106,39.26674 l -8.6783,0 c -1.2845,-13.07707 -2.1445,-26.18789 -3.4106,-39.26674 l -8.6784,0 c -1.2784,13.07783 -2.1513,26.18783 -3.4195,39.26674 l -8.6783,0 c -1.2854,-13.07701 -2.1431,-26.188 -3.4106,-39.26674 l -8.6426,0 c -1.2714,13.0773 -2.1218,26.1877 -3.3749,39.26674 l -8.6427,0 c -1.2928,-13.07651 -2.1534,-26.18772 -3.4195,-39.26674 l -8.6783,0 c -1.2845,13.07708 -2.1445,26.1879 -3.4107,39.26674 l -8.6783,0 c -1.2844,-13.07707 -2.1445,-26.18789 -3.4106,-39.26674 l -8.6872,0 c -1.2845,13.07708 -2.1445,26.1879 -3.4107,39.26674 l -8.6783,0 c -1.2845,-13.07707 -2.1445,-26.18788 -3.4106,-39.26674 l -8.6783,0 c -1.2845,13.07708 -2.1445,26.18789 -3.4106,39.26674 l -8.6784,0 c -1.2845,-13.07707 -2.1445,-26.18788 -3.4106,-39.26674 l -8.6873,0 c -1.2844,13.07708 -2.1444,26.1879 -3.4106,39.26674 l -8.6783,0 c -1.2844,-13.07707 -2.1445,-26.18789 -3.4106,-39.26674 l -8.6783,0 c -1.2845,13.07708 -2.1445,26.1879 -3.4107,39.26674 l -8.6872,0 c -1.2845,-13.07707 -2.1445,-26.18788 -3.4106,-39.26674 l -8.6783,0 c -1.2845,13.07708 -2.1445,26.18789 -3.4107,39.26674 l -8.6783,0 c -1.2845,-13.07707 -2.1445,-26.18788 -3.4106,-39.26674 l -8.6783,0 c -1.2845,13.07708 -2.1445,26.18789 -3.4106,39.26674 l -8.6873,0 c -1.2853,-13.07702 -2.1431,-26.188 -3.4106,-39.26674 l -8.6426,0 c -1.2713,13.07731 -2.1218,26.1877 -3.3749,39.26674 l -8.6426,0 c -1.2929,-13.07651 -2.1534,-26.18772 -3.4196,-39.26674 l -8.6783,0 c -1.2845,13.07708 -2.1445,26.18789 -3.4106,39.26674 l -8.6783,0 c -1.2846,-13.07707 -2.1445,-26.18788 -3.4107,-39.26674 l -8.6783,0 c -1.292,13.07659 -2.1534,26.18775 -3.4195,39.26674 l -8.6784,0 c -1.2844,-13.07707 -2.1444,-26.18789 -3.4106,-39.26674 l -8.6783,0 c -1.2845,13.07708 -2.1445,26.1879 -3.4106,39.26674 l -8.6784,0 c -1.2844,-13.07707 -2.1444,-26.18789 -3.4106,-39.26674 l -8.6872,0 c -1.2845,13.07708 -2.1445,26.1879 -3.4106,39.26674 l -8.6784,0 c -1.2844,-13.07707 -2.1445,-26.18788 -3.4106,-39.26674 l -8.6783,0 c -1.0289,10.08137 -1.7053,19.63337 -1.7053,19.63337 0,0 -3.0216,14.28531 -6.0445,14.28531 -3.0229,0 -6.0534,-14.28531 -6.0534,-14.28531 0,0 -3.0216,-14.2853 -6.0445,-14.2853 -3.0228,0 -6.0444,14.2853 -6.0444,14.2853 0,0 -3.0216,14.28531 -6.0445,14.28531 -3.0229,0 -6.0445,-14.28531 -6.0445,-14.28531 0,0 -3.0216,-14.2853 -6.0444,-14.2853 -3.0229,0 -6.0445,14.2853 -6.0445,14.2853 0,0 -3.0305,14.28531 -6.0534,14.28531 -3.0229,0 -6.0445,-14.28531 -6.0445,-14.28531 0,0 -3.0345,-14.2853 -6.0445,-14.2853 -3.0099,0 -5.9909,14.2853 -5.9909,14.2853"
       transform="translate(0,112.89489)"
       clip-path="url(#clipPath4485)"
       id="path8134"
       style="color:#000000;fill:none;stroke:#000000;stroke-width:1.42853081;stroke-linecap:butt;stroke-linejoin:miter;stroke-miterlimit:4;stroke-opacity:1;stroke-dashoffset:0;marker:none;visibility:visible;display:inline;overflow:visible;enable-background:accumulate" />
    <path
       d="m 2916.3858,-564.22587 -974.2096,0 m 974.2096,41.9534 -974.2096,0"
       transform="translate(0,112.89489)"
       clip-path="url(#clipPath4481)"
       id="path8120"
       style="color:#000000;fill:none;stroke:#0000fd;stroke-width:1.42853081;stroke-linecap:butt;stroke-linejoin:miter;stroke-miterlimit:4;stroke-opacity:1;stroke-dasharray:4.28559232, 1.42853077;stroke-dashoffset:0;marker:none;visibility:visible;display:inline;overflow:visible;enable-background:accumulate" />
    <text
       x="1944.5575"
       y="-574.22778"
       transform="translate(0,106.89489)"
       clip-path="url(#clipPath4469)"
       id="text8157"
       xml:space="preserve"
       style="font-size:20px;font-style:normal;font-variant:normal;font-weight:normal;font-stretch:normal;text-align:start;line-height:100%;writing-mode:lr-tb;text-anchor:start;fill:#000000;fill-opacity:1;stroke:none;font-family:Tahoma"><tspan
         x="1944.5575"
         y="-574.22778"
         id="tspan8159">Hard Clipping</tspan></text>
    <rect
       width="14.689609"
       height="14.689609"
       x="2395.9136"
       y="-736.71057"
       clip-path="url(#clipPath4465)"
       id="rect9144"
       style="color:#000000;fill:#fc8800;fill-opacity:0.67251461;fill-rule:nonzero;stroke:none;stroke-width:1;marker:none;visibility:visible;display:inline;overflow:visible;enable-background:accumulate" />
    <text
       x="2415.4998"
       y="-723.63141"
       clip-path="url(#clipPath4461)"
       id="text9146"
       xml:space="preserve"
       style="font-size:16px;font-style:normal;font-variant:normal;font-weight:normal;font-stretch:normal;text-align:start;line-height:100%;writing-mode:lr-tb;text-anchor:start;fill:#000000;fill-opacity:1;stroke:none;font-family:Tahoma"><tspan
         x="2415.4998"
         y="-723.63141"
         id="tspan9148">Distortion</tspan></text>
    <path
       d="m 2516.1174,-729.36578 31.0632,0"
       clip-path="url(#clipPath4457)"
       id="path9150"
       style="color:#000000;fill:none;stroke:#0000fd;stroke-width:2.24080539;stroke-linecap:butt;stroke-linejoin:miter;stroke-miterlimit:4;stroke-opacity:1;stroke-dasharray:6.72241654, 2.24080551;stroke-dashoffset:0;marker:none;visibility:visible;display:inline;overflow:visible;enable-background:accumulate" />
    <text
       x="2553.4187"
       y="-723.40875"
       clip-path="url(#clipPath4453)"
       id="text9152"
       xml:space="preserve"
       style="font-size:16px;font-style:normal;font-variant:normal;font-weight:normal;font-stretch:normal;text-align:start;line-height:100%;writing-mode:lr-tb;text-anchor:start;fill:#000000;fill-opacity:1;stroke:none;font-family:Tahoma"><tspan
         x="2553.4187"
         y="-723.40875"
         id="tspan9154">Threshold</tspan></text>
    <rect
       width="551.00336"
       height="49.331104"
       x="2009.8164"
       y="-567.8078"
       transform="translate(-1.8763582,8.56538)"
       clip-path="url(#clipPath4489-1)"
       id="rect9138-4"
       style="color:#000000;fill:#fc8800;fill-opacity:0.67251461;fill-rule:nonzero;stroke:none;stroke-width:1;marker:none;visibility:visible;display:inline;overflow:visible;enable-background:accumulate" />
    <path
       d="m 2014.5389,-431.20267 c 0,0 -3.0228,14.28531 -6.0457,14.28531 -3.0229,0 -6.0458,-14.28531 -6.0458,-14.28531 0,0 -3.0228,-14.28531 -6.0457,-14.28531 -3.0229,0 -6.0458,14.28531 -6.0458,14.28531 0,0 -3.0228,14.28531 -6.0457,14.28531 -3.0229,0 -6.0457,-14.28531 -6.0457,-14.28531 0,0 -3.0229,-14.28531 -6.0458,-14.28531 -3.0229,0 -6.0457,14.28531 -6.0457,14.28531 0,0 -3.0229,14.28531 -6.0458,14.28531 -3.0229,0 -6.0457,-14.28531 -6.0457,-14.28531 0,0 -3.0359,-14.28531 -6.0458,-14.28531 -3.0099,0 -5.9939,14.28531 -5.9939,14.28531 m 972.9091,-14.28531 c -3.01,0 -5.994,14.28531 -5.994,14.28531 0,0 -2.984,14.28531 -5.9939,14.28531 -3.0099,0 -6.0457,-14.28531 -6.0457,-14.28531 0,0 -3.0229,-14.28531 -6.0458,-14.28531 -3.0228,0 -6.0457,14.28531 -6.0457,14.28531 0,0 -3.0229,14.28531 -6.0457,14.28531 -3.0229,0 -6.0458,-14.28531 -6.0458,-14.28531 0,0 -3.0229,-14.28531 -6.0458,-14.28531 -3.0228,0 -6.0457,14.28531 -6.0457,14.28531 0,0 -3.0228,14.28531 -6.0457,14.28531 -3.0229,0 -6.0458,-14.28531 -6.0458,-14.28531 0,0 -3.0228,-14.28531 -6.0457,-14.28531 -3.0229,0 -6.0458,14.28531 -6.0458,14.28531 0,0 -3.0228,14.28531 -6.0457,14.28531 -3.0229,0 -6.0457,-14.28531 -6.0457,-14.28531 0,0 -3.0229,-14.28531 -6.0458,-14.28531 -3.0228,0 -6.0457,14.28531 -6.0457,14.28531 0,0 -3.0229,14.28531 -6.0458,14.28531 -3.0229,0 -6.0457,-14.28531 -6.0457,-14.28531 0,0 -3.0229,-14.28531 -6.0458,-14.28531 -3.0228,0 -6.0457,14.28531 -6.0457,14.28531 0,0 -3.0229,14.28531 -6.0458,14.28531 -3.0229,0 -6.0457,-14.28531 -6.0457,-14.28531 0,0 -3.0229,-14.28531 -6.0458,-14.28531 -3.0228,0 -6.0457,14.28531 -6.0457,14.28531 0,0 -3.0229,14.28531 -6.0457,14.28531 -3.0229,0 -6.0458,-14.28531 -6.0458,-14.28531 0,0 -3.0229,-14.28531 -6.0458,-14.28531 -3.0228,0 -6.0457,14.28531 -6.0457,14.28531 0,0 -3.0229,14.28531 -6.0457,14.28531 -3.0229,0 -6.0458,-14.28531 -6.0458,-14.28531 0,0 -3.0358,-14.28531 -6.0457,-14.28531 -3.0099,0 -5.9939,14.28531 -5.9939,14.28531 0,0 -2.984,14.28531 -5.994,14.28531 -3.0099,0 -6.0457,-14.28531 -6.0457,-14.28531 0,0 -3.0229,-14.28531 -6.0457,-14.28531 -3.0229,0 -6.0458,14.28531 -6.0458,14.28531 0,0 -3.0229,14.28531 -6.0458,14.28531 -3.0228,0 -6.0457,-14.28531 -6.0457,-14.28531 0,0 -3.0229,-14.28531 -6.0457,-14.28531 -3.0229,0 -6.0458,14.28531 -6.0458,14.28531 0,0 -3.0229,14.28531 -6.0457,14.28531 -3.0229,0 -6.0458,-14.28531 -6.0458,-14.28531 0,0 -3.0228,-14.28531 -6.0457,-14.28531 -3.0229,0 -6.0457,14.28531 -6.0457,14.28531 0,0 -3.0229,14.28531 -6.0458,14.28531 -3.0229,0 -6.0457,-14.28531 -6.0457,-14.28531 0,0 -3.0229,-14.28531 -6.0458,-14.28531 -3.0229,0 -6.0457,14.28531 -6.0457,14.28531 0,0 -3.0229,14.28531 -6.0458,14.28531 -3.0229,0 -6.0457,-14.28531 -6.0457,-14.28531 0,0 -3.0229,-14.28531 -6.0458,-14.28531 -3.0229,0 -6.0457,14.28531 -6.0457,14.28531 0,0 -3.0229,14.28531 -6.0458,14.28531 -3.0228,0 -6.0457,-14.28531 -6.0457,-14.28531 0,0 -3.0229,-14.28531 -6.0457,-14.28531 -3.0229,0 -6.0458,14.28531 -6.0458,14.28531 0,0 -3.0228,14.28531 -6.0457,14.28531 -3.0229,0 -6.0458,-14.28531 -6.0458,-14.28531"
       transform="translate(0,-103.1835)"
       clip-path="url(#clipPath4445)"
       id="path9156"
       style="color:#000000;fill:none;stroke:#000000;stroke-width:1.42853081;stroke-linecap:butt;stroke-linejoin:miter;stroke-miterlimit:4;stroke-opacity:1;stroke-dashoffset:0;marker:none;visibility:visible;display:inline;overflow:visible;enable-background:accumulate" />
    <path
       d="m 2916.3858,-452.17938 -974.2096,0 m 974.2096,41.95342 -974.2096,0"
       transform="translate(0,-103.1835)"
       clip-path="url(#clipPath4441)"
       id="path9158"
       style="color:#000000;fill:none;stroke:#0000fd;stroke-width:1.42853081;stroke-linecap:butt;stroke-linejoin:miter;stroke-miterlimit:4;stroke-opacity:1;stroke-dasharray:4.28559232, 1.42853077;stroke-dashoffset:0;marker:none;visibility:visible;display:inline;overflow:visible;enable-background:accumulate" />
    <path
       d="m 2558.4592,-430.67864 c 0,0 0.9741,-20.14716 -6.0457,-19.85234 -7.0137,0.29456 -2.2046,38.85386 -12.0915,38.74161 -9.8812,-0.11218 -2.0075,-38.91035 -12.0915,-38.74161 -10.4491,0.16874 -1.9764,38.60538 -12.1021,38.74161 -10.1265,0.13625 -2.619,-38.90628 -12.0914,-38.74161 -9.7171,0.16892 -2.2127,38.98353 -12.0915,38.74161 -9.6376,-0.23601 -3.1041,-39.0125 -12.0915,-38.74161 -9.7169,0.29289 -1.9579,38.48168 -12.0915,38.74161 -10.1245,0.2597 -1.7673,-38.91057 -12.0915,-38.74161 -10.3254,0.16898 -2.2111,38.85381 -12.0915,38.74161 -9.881,-0.1122 -1.7702,-39.04164 -12.0915,-38.74161 -10.082,0.29308 -1.8445,38.72978 -12.0915,38.74161 -10.1244,0.0117 -2.6166,-38.78684 -12.0915,-38.74161 -9.4735,0.0452 -1.9677,38.85517 -12.0915,38.74161 -10.0027,-0.1122 -2.9786,-38.78102 -12.0915,-38.74161 -10.4471,0.0452 -2.3321,38.72974 -12.0914,38.74161 -9.881,0.0119 -2.3744,-38.78838 -12.0915,-38.74161 -9.3518,0.045 -2.3332,38.8602 -12.0915,38.74161 -9.1496,-0.11119 -2.3928,-38.79016 -12.0915,-38.74161 -9.6968,0.0485 -2.3702,38.85894 -11.9878,38.74161 -9.7393,-0.11732 -3.1062,-38.6631 -12.0915,-38.74161 -9.3504,-0.0785 -2.4538,38.72976 -12.0915,38.74161 -9.7594,0.0119 -1.4047,-39.04124 -12.0915,-38.74161 -10.4471,0.2929 -1.9691,38.97756 -12.0915,38.74161 -10.1244,-0.23601 -2.1313,-38.91071 -12.0915,-38.74161 -10.0819,0.1691 -2.3322,38.72993 -12.0915,38.74161 -9.881,0.0117 -2.495,-38.78571 -12.0915,-38.74161 -9.8385,0.0452 -3.0523,38.95498 -12.0915,38.74161 -10.0027,-0.23613 -2.8613,-38.91062 -12.0914,-38.74161 -9.3518,0.16901 -2.8191,38.72987 -12.0916,38.74161 -9.3942,0.0118 -2.983,-38.66271 -12.0914,-38.74161 -8.865,-0.0789 -2.6981,38.60759 -12.0915,38.74161 -9.516,0.13577 -2.5003,-39.03439 -12.0915,-38.74161 -9.5952,0.2929 -2.2084,38.72918 -12.0915,38.74161 -10.1232,0.0127 -2.3928,-38.79016 -12.0915,-38.74161 -9.6968,0.0485 -2.368,38.85611 -11.9878,38.74161 -9.8609,-0.11737 -2.3754,-38.91098 -12.0915,-38.74161 -9.7155,0.16935 -1.8453,38.72988 -12.0915,38.74161 -10.3679,0.0117 -0.9142,-38.53879 -12.0915,-38.74161 -11.1757,-0.20279 -2.3321,38.60596 -12.0915,38.74161 -9.8811,0.13566 -1.7733,-38.41985 -12.0915,-38.74161 -10.1965,-0.32177 -2.4474,38.60591 -12.0915,38.74161 -9.6376,0.13561 -2.7394,-38.54887 -12.0915,-38.74161 -9.8387,-0.20277 -1.8426,38.85929 -12.0914,38.74161 -9.7594,-0.11206 -1.5307,-38.58535 -12.0915,-38.74161 -2.9998,-0.0454 -6.0458,19.85234 -6.0458,19.85234"
       transform="translate(0,-103.1835)"
       clip-path="url(#clipPath4437)"
       id="path9166"
       style="color:#000000;fill:none;stroke:#000000;stroke-width:1.42853081;stroke-linecap:butt;stroke-linejoin:miter;stroke-miterlimit:4;stroke-opacity:1;stroke-dashoffset:0;marker:none;visibility:visible;display:inline;overflow:visible;enable-background:accumulate" />
    <text
       x="1943.4824"
       y="-472.36926"
       transform="translate(0,-103.1835)"
       clip-path="url(#clipPath4433)"
       id="text9170"
       xml:space="preserve"
       style="font-size:20px;font-style:normal;font-variant:normal;font-weight:normal;font-stretch:normal;text-indent:0;text-align:start;text-decoration:none;line-height:100%;letter-spacing:normal;word-spacing:normal;text-transform:none;direction:ltr;block-progression:tb;writing-mode:lr-tb;text-anchor:start;color:#000000;fill:#000000;fill-opacity:1;fill-rule:nonzero;stroke:none;stroke-width:1px;marker:none;visibility:visible;display:inline;overflow:visible;enable-background:accumulate;font-family:Tahoma"><tspan
         x="1943.4824"
         y="-472.36926"
         id="tspan9172">Soft Clipping</tspan></text>
  </g>
</svg>
